<svg width="227" height="215" viewBox="0 0 227 215" fill="none" xmlns="http://www.w3.org/2000/svg">
<path fill-rule="evenodd" clip-rule="evenodd" d="M113.66 18.4716C139.858 26.7413 161.771 20.318 178.495 33.4794C195.951 47.2166 198.466 70.7477 202.758 92.1708C207.241 114.547 213.271 156.603 195.26 174.139C177.249 191.675 172.526 199.189 148.845 203.497C125.647 207.717 111.467 190.479 88.556 184.615C68.6353 179.516 41.0235 190.467 25.4551 164.729C9.88668 138.991 8.37635 132.003 11.7321 112.761C15.0878 93.5184 22.1399 85.4865 30.506 69.1808C39.0387 52.5506 44.7906 25.2625 61.8223 16.9218C78.9455 8.53633 85.5399 5.63652 113.66 18.4716Z" fill="url(#paint0_radial_103_2)"/>
<circle cx="109.5" cy="107.534" r="35.5" fill="url(#paint1_radial_103_2)" fill-opacity="0.87"/>
<path d="M113.985 85.0025C113.71 88.3184 108.944 83.551 103.216 84.5542C97.487 85.5573 93.7948 91.8057 93.2396 88.6352C93.0206 87.3844 96.9318 82.3867 102.66 81.3836C108.389 80.3805 114.103 83.5814 113.985 85.0025Z" fill="#FFF5C1" fill-opacity="0.58"/>
<defs>
<radialGradient id="paint0_radial_103_2" cx="0" cy="0" r="1" gradientUnits="userSpaceOnUse" gradientTransform="translate(113.223 107.025) rotate(99.8926) scale(91.3755 98.9963)">
<stop stop-color="#ECE7E2"/>
<stop offset="0.770833" stop-color="#F3F2F2"/>
</radialGradient>
<radialGradient id="paint1_radial_103_2" cx="0" cy="0" r="1" gradientUnits="userSpaceOnUse" gradientTransform="translate(100.356 96.7762) rotate(46.8183) scale(47.9467 46.3399)">
<stop offset="2.18516e-09" stop-color="#FFDC60"/>
<stop offset="1" stop-color="#F8B60C"/>
</radialGradient>
</defs>
</svg>
