<svg width="517" height="534" viewBox="0 0 517 534" fill="none" xmlns="http://www.w3.org/2000/svg">
<path d="M367.066 83.8772C284.352 51.3198 190.866 92.0814 158.259 174.921C125.653 257.76 166.273 351.307 248.988 383.865C331.702 416.422 425.188 375.661 457.795 292.821C490.401 209.982 449.781 116.435 367.066 83.8772Z" fill="#383D6D"/>
<path d="M27.9497 402.174L310.331 249L291.653 214.444L9.27151 367.618L27.9497 402.174Z" fill="#383D6D"/>
<circle r="136.21" transform="matrix(0.36626 -0.930512 -0.930512 -0.36626 309.716 232.949)" fill="#31355B"/>
<path fill-rule="evenodd" clip-rule="evenodd" d="M306.174 141.438C279.976 149.707 258.063 143.284 241.339 156.446C223.883 170.183 221.368 193.714 217.076 215.137C212.593 237.513 206.563 279.569 224.574 297.105C242.585 314.641 247.308 322.155 270.989 326.463C294.187 330.683 308.367 313.445 331.278 307.581C351.199 302.483 378.81 313.434 394.379 287.695C409.947 261.957 411.458 254.969 408.102 235.727C404.746 216.485 397.694 208.453 389.328 192.147C380.795 175.517 375.043 148.229 358.012 139.888C340.889 131.503 334.294 128.603 306.174 141.438Z" fill="url(#paint0_radial_102_3)"/>
<circle r="35.5" transform="matrix(-1 0 0 1 310.334 230.5)" fill="url(#paint1_radial_102_3)" fill-opacity="0.87"/>
<path d="M305.849 207.969C306.124 211.285 310.89 206.517 316.618 207.52C322.347 208.523 326.039 214.772 326.594 211.601C326.813 210.351 322.902 205.353 317.174 204.35C311.445 203.347 305.731 206.548 305.849 207.969Z" fill="#FFF5C1" fill-opacity="0.58"/>
<defs>
<radialGradient id="paint0_radial_102_3" cx="0" cy="0" r="1" gradientUnits="userSpaceOnUse" gradientTransform="translate(306.611 229.991) rotate(80.1074) scale(91.3755 98.9963)">
<stop stop-color="#ECE7E2"/>
<stop offset="0.770833" stop-color="#F3F2F2"/>
</radialGradient>
<radialGradient id="paint1_radial_102_3" cx="0" cy="0" r="1" gradientUnits="userSpaceOnUse" gradientTransform="translate(26.3561 24.7424) rotate(46.8183) scale(47.9467 46.3399)">
<stop offset="2.18516e-09" stop-color="#FFDC60"/>
<stop offset="1" stop-color="#F8B60C"/>
</radialGradient>
</defs>
</svg>
