<svg width="331" height="331" viewBox="0 0 331 331" fill="none" xmlns="http://www.w3.org/2000/svg">
<g filter="url(#filter0_i_9_79)">
<rect width="330.789" height="330.789" rx="42.99" fill="white"/>
<g filter="url(#filter1_ii_9_79)">
<path d="M152.184 43.9792C157.43 33.3513 172.585 33.3513 177.831 43.9791L205.872 100.788C207.954 105.005 211.975 107.929 216.628 108.609L279.359 117.778C291.085 119.492 295.758 133.905 287.269 142.173L241.899 186.363C238.526 189.648 236.987 194.384 237.783 199.025L248.487 261.436C250.491 273.119 238.227 282.028 227.736 276.511L171.664 247.023C167.497 244.832 162.518 244.832 158.351 247.023L102.279 276.511C91.7876 282.028 79.524 273.119 81.5278 261.436L92.2322 199.025C93.0281 194.384 91.4885 189.648 88.1153 186.363L42.7458 142.173C34.257 133.905 38.9302 119.492 50.6556 117.778L113.387 108.609C118.04 107.929 122.061 105.005 124.142 100.788L152.184 43.9792Z" fill="url(#paint0_linear_9_79)"/>
</g>
</g>
<defs>
<filter id="filter0_i_9_79" x="0" y="-17.3682" width="330.789" height="348.157" filterUnits="userSpaceOnUse" color-interpolation-filters="sRGB">
<feFlood flood-opacity="0" result="BackgroundImageFix"/>
<feBlend mode="normal" in="SourceGraphic" in2="BackgroundImageFix" result="shape"/>
<feColorMatrix in="SourceAlpha" type="matrix" values="0 0 0 0 0 0 0 0 0 0 0 0 0 0 0 0 0 0 127 0" result="hardAlpha"/>
<feOffset dy="-17.3682"/>
<feGaussianBlur stdDeviation="17.3682"/>
<feComposite in2="hardAlpha" operator="arithmetic" k2="-1" k3="1"/>
<feColorMatrix type="matrix" values="0 0 0 0 0 0 0 0 0 0 0 0 0 0 0 0 0 0 0.25 0"/>
<feBlend mode="normal" in2="shape" result="effect1_innerShadow_9_79"/>
</filter>
<filter id="filter1_ii_9_79" x="38.4076" y="21.7075" width="253.2" height="256.479" filterUnits="userSpaceOnUse" color-interpolation-filters="sRGB">
<feFlood flood-opacity="0" result="BackgroundImageFix"/>
<feBlend mode="normal" in="SourceGraphic" in2="BackgroundImageFix" result="shape"/>
<feColorMatrix in="SourceAlpha" type="matrix" values="0 0 0 0 0 0 0 0 0 0 0 0 0 0 0 0 0 0 127 0" result="hardAlpha"/>
<feOffset dy="-14.3007"/>
<feGaussianBlur stdDeviation="14.3007"/>
<feComposite in2="hardAlpha" operator="arithmetic" k2="-1" k3="1"/>
<feColorMatrix type="matrix" values="0 0 0 0 0.549971 0 0 0 0 0.304646 0 0 0 0 0.0781912 0 0 0 0.57 0"/>
<feBlend mode="normal" in2="shape" result="effect1_innerShadow_9_79"/>
<feColorMatrix in="SourceAlpha" type="matrix" values="0 0 0 0 0 0 0 0 0 0 0 0 0 0 0 0 0 0 127 0" result="hardAlpha"/>
<feOffset dy="-14.3007"/>
<feGaussianBlur stdDeviation="7.15037"/>
<feComposite in2="hardAlpha" operator="arithmetic" k2="-1" k3="1"/>
<feColorMatrix type="matrix" values="0 0 0 0 1 0 0 0 0 0.981301 0 0 0 0 0.813007 0 0 0 0.72 0"/>
<feBlend mode="normal" in2="effect1_innerShadow_9_79" result="effect2_innerShadow_9_79"/>
</filter>
<linearGradient id="paint0_linear_9_79" x1="108.008" y1="48.2975" x2="170.246" y2="271.812" gradientUnits="userSpaceOnUse">
<stop offset="0.0001" stop-color="#FFED8C"/>
<stop offset="1" stop-color="#F4B335"/>
</linearGradient>
</defs>
</svg>
